<?xml version="1.0" standalone="no"?>
<!DOCTYPE svg PUBLIC "-//W3C//DTD SVG 20010904//EN"
 "http://www.w3.org/TR/2001/REC-SVG-20010904/DTD/svg10.dtd">
<svg version="1.0" xmlns="http://www.w3.org/2000/svg"
 width="1920.000000pt" height="1920.000000pt" viewBox="0 0 1920.000000 1920.000000"
 preserveAspectRatio="xMidYMid meet">

<g transform="translate(0.000000,1920.000000) scale(0.100000,-0.100000)"
fill="#000000" stroke="none">
<path d="M5830 18512 c-8 -3 19 -11 60 -18 130 -20 154 -25 190 -34 19 -5 69
-16 110 -26 41 -9 89 -20 105 -25 38 -11 116 -33 175 -49 25 -7 54 -16 65 -20
11 -5 45 -16 75 -26 30 -9 64 -20 75 -25 11 -4 43 -15 70 -24 56 -19 92 -33
117 -46 10 -5 22 -9 28 -9 6 0 33 -11 62 -25 28 -14 55 -25 60 -25 7 0 50 -19
173 -75 165 -75 490 -242 562 -288 24 -15 45 -27 48 -27 3 0 42 -22 86 -50 44
-27 83 -50 85 -50 8 0 89 -55 92 -62 2 -5 8 -8 13 -8 14 0 420 -275 554 -376
66 -50 132 -99 146 -110 73 -54 145 -108 149 -113 3 -3 50 -42 105 -86 55 -44
105 -85 111 -91 6 -5 36 -30 65 -55 41 -34 200 -179 229 -209 3 -3 25 -23 50
-44 246 -213 760 -728 1001 -1001 24 -27 70 -77 101 -110 34 -35 58 -69 58
-82 0 -17 -67 -103 -110 -143 -3 -3 -37 -41 -75 -85 -38 -44 -76 -87 -84 -95
-9 -8 -47 -51 -85 -95 -38 -44 -98 -112 -135 -151 -36 -39 -95 -104 -130 -145
-36 -41 -93 -103 -126 -139 -34 -36 -84 -90 -111 -119 -27 -30 -99 -107 -160
-170 -61 -64 -131 -137 -155 -164 -106 -115 -426 -450 -719 -752 -221 -228
-723 -726 -935 -929 -252 -241 -554 -543 -640 -641 -38 -44 -77 -87 -85 -95
-16 -15 -196 -230 -257 -305 -81 -102 -303 -410 -303 -421 0 -4 -7 -15 -15
-24 -15 -16 -145 -222 -158 -251 -4 -8 -18 -32 -32 -54 -13 -22 -35 -60 -47
-85 -13 -25 -26 -47 -29 -50 -3 -3 -25 -45 -49 -95 -24 -49 -47 -91 -52 -93
-4 -2 -8 -10 -8 -18 0 -13 -9 -34 -32 -74 -4 -8 -11 -22 -14 -30 -12 -30 -23
-56 -47 -110 -14 -30 -33 -79 -42 -108 -10 -29 -21 -55 -26 -58 -5 -3 -9 -16
-9 -29 0 -13 -4 -26 -9 -29 -5 -3 -11 -18 -14 -33 -4 -25 -11 -46 -37 -118 -4
-11 -16 -47 -25 -80 -10 -33 -22 -70 -26 -83 -5 -13 -9 -35 -9 -50 0 -16 -4
-32 -9 -38 -12 -12 -27 -84 -66 -309 -18 -106 -38 -400 -30 -434 11 -43 20
-10 27 97 8 128 22 227 37 265 6 16 11 41 11 57 0 16 4 32 10 35 6 3 10 19 10
34 0 16 7 42 15 57 8 16 15 39 15 51 0 12 4 25 10 28 6 3 10 17 10 31 0 13 4
32 9 42 17 35 39 88 51 122 7 19 18 49 25 65 7 17 17 41 23 55 14 35 173 355
204 412 25 43 57 97 85 143 7 11 26 45 44 75 17 30 47 76 65 103 19 26 34 50
34 53 0 3 27 43 60 90 33 46 60 87 60 90 0 2 11 17 25 32 14 15 25 32 25 39 0
6 4 13 9 15 4 2 41 48 80 103 80 111 124 170 149 200 10 11 31 38 47 60 16 22
34 45 40 50 6 6 40 46 75 90 36 44 67 82 70 85 3 3 30 34 60 70 30 36 60 70
66 76 5 6 41 47 80 90 127 144 178 197 419 439 132 132 283 277 335 320 52 44
97 82 100 85 3 3 34 30 70 60 36 30 85 72 110 95 25 22 66 57 90 78 25 21 74
66 110 100 36 34 105 98 154 142 129 115 328 309 665 646 462 462 543 547 900
942 41 45 106 116 145 158 39 42 87 95 106 118 19 23 57 66 84 94 27 29 81 90
121 137 40 47 85 99 101 115 16 17 53 60 83 95 30 36 60 70 66 75 6 6 28 32
50 60 22 27 49 59 60 70 12 11 56 63 100 115 43 52 81 97 85 100 3 3 25 30 50
60 25 30 73 89 108 130 113 133 131 154 154 185 19 26 46 57 93 109 6 6 27 32
48 58 21 26 43 53 50 60 7 7 37 42 67 78 30 36 61 71 68 78 6 7 12 16 12 20 0
4 11 20 24 35 14 16 40 47 58 70 67 83 132 162 138 167 3 3 37 46 75 95 80
103 88 113 135 169 19 23 44 55 55 70 11 16 47 63 80 105 33 42 75 96 92 121
17 25 40 56 52 69 12 13 21 27 21 31 0 3 8 15 18 26 22 24 180 244 215 300 19
31 23 44 14 53 -6 6 -15 11 -20 11 -5 0 -23 6 -40 14 -18 7 -63 26 -102 41
-38 15 -81 32 -95 37 -14 5 -38 16 -53 24 -16 8 -36 14 -46 14 -9 0 -21 4 -27
8 -5 4 -70 28 -144 52 -74 24 -144 47 -155 51 -64 25 -345 104 -458 128 -26 6
-56 15 -66 21 -11 5 -30 10 -42 10 -12 0 -36 4 -53 9 -44 14 -193 45 -281 61
-27 4 -88 16 -135 25 -47 9 -114 20 -150 25 -36 5 -114 16 -175 25 -124 18
-244 31 -420 44 -66 5 -163 14 -215 20 -127 14 -997 15 -1125 1 -55 -6 -154
-15 -220 -20 -198 -15 -309 -27 -330 -33 -11 -4 -61 -12 -110 -18 -132 -16
-205 -26 -247 -34 -29 -6 -48 -2 -83 14 -24 11 -48 21 -51 21 -3 0 -22 7 -42
16 -21 9 -46 19 -57 24 -11 4 -37 15 -58 24 -21 9 -46 16 -57 16 -10 0 -22 5
-25 10 -3 6 -16 10 -29 10 -12 0 -26 4 -32 9 -5 5 -36 16 -69 26 -33 10 -96
29 -140 42 -44 13 -96 28 -115 32 -19 5 -60 16 -91 25 -31 9 -67 16 -80 16
-14 0 -29 4 -34 9 -6 5 -28 11 -50 14 -22 2 -78 12 -125 22 -104 21 -167 31
-289 45 -52 6 -99 14 -105 17 -5 4 -64 10 -130 14 -67 4 -152 12 -191 18 -75
11 -450 13 -475 3z"/>
<path d="M14420 18237 c-36 -18 -92 -52 -125 -76 -69 -50 -229 -208 -302 -296
-85 -103 -241 -313 -275 -370 -18 -30 -36 -55 -40 -55 -5 0 -8 -5 -8 -12 0 -6
-6 -19 -14 -27 -8 -9 -26 -38 -41 -66 -15 -27 -43 -71 -61 -98 -19 -26 -34
-49 -34 -52 0 -6 -176 -265 -266 -391 -41 -58 -74 -109 -74 -114 0 -4 -4 -10
-9 -12 -4 -1 -54 -67 -110 -146 -56 -79 -106 -149 -111 -155 -6 -7 -27 -35
-47 -64 -97 -133 -235 -316 -283 -373 -21 -25 -63 -79 -93 -120 -31 -41 -67
-88 -79 -104 -13 -16 -32 -41 -43 -56 -41 -56 -109 -145 -119 -157 -6 -6 -34
-42 -63 -80 -96 -126 -245 -318 -262 -339 -10 -11 -36 -45 -58 -75 -23 -30
-53 -67 -67 -83 -14 -16 -26 -32 -26 -35 0 -3 -13 -19 -28 -36 -15 -16 -64
-77 -109 -135 -45 -58 -89 -114 -100 -125 -18 -20 -87 -109 -129 -167 -12 -16
-34 -43 -50 -61 -16 -18 -45 -52 -64 -77 -19 -25 -39 -50 -45 -56 -5 -6 -19
-23 -30 -38 -11 -15 -30 -40 -43 -54 -13 -15 -42 -52 -65 -82 -23 -30 -57 -72
-75 -92 -19 -21 -42 -48 -51 -60 -8 -13 -21 -29 -29 -37 -13 -14 -105 -125
-152 -184 -14 -18 -47 -60 -75 -93 -27 -34 -63 -78 -80 -99 -16 -21 -34 -43
-40 -49 -5 -6 -27 -32 -48 -58 -21 -26 -44 -53 -50 -60 -7 -7 -32 -38 -54 -68
-23 -30 -54 -68 -68 -85 -15 -16 -44 -50 -64 -75 -20 -25 -38 -47 -41 -50 -3
-3 -23 -27 -44 -55 -22 -27 -44 -54 -51 -60 -9 -9 -57 -66 -160 -194 -16 -20
-75 -90 -130 -156 -55 -65 -120 -143 -144 -174 -25 -31 -51 -62 -57 -69 -7 -7
-30 -34 -51 -60 -21 -26 -41 -49 -44 -52 -3 -3 -27 -32 -53 -65 -27 -33 -65
-78 -86 -100 -20 -22 -53 -64 -74 -93 -21 -28 -43 -55 -50 -60 -7 -4 -35 -35
-62 -68 -71 -89 -193 -232 -202 -238 -9 -6 -87 15 -98 27 -4 4 -16 7 -26 7
-10 0 -26 4 -36 9 -9 5 -37 17 -62 26 -25 10 -59 24 -77 31 -17 8 -37 14 -45
14 -8 0 -18 4 -23 8 -6 5 -30 14 -55 21 -41 12 -88 31 -132 52 -10 5 -22 9
-28 9 -13 0 -3 -71 16 -119 8 -18 14 -46 14 -62 0 -15 5 -31 10 -34 6 -3 10
-17 10 -31 0 -14 5 -35 12 -47 11 -20 17 -49 34 -142 3 -16 12 -44 20 -62 17
-39 18 -107 1 -125 -7 -7 -30 -38 -52 -68 -22 -30 -45 -61 -52 -68 -7 -7 -13
-17 -13 -21 0 -4 -8 -16 -18 -27 -10 -11 -48 -60 -84 -109 -83 -114 -193 -263
-219 -295 -10 -14 -27 -37 -37 -51 -9 -15 -38 -55 -64 -89 -26 -35 -46 -66
-43 -68 5 -5 105 28 160 53 17 7 41 17 55 23 14 5 51 22 83 36 32 14 62 26 67
26 6 0 18 4 28 9 9 4 35 16 57 26 22 9 48 21 57 26 10 5 22 9 28 9 5 0 35 12
67 26 32 15 74 33 93 41 19 8 44 18 55 23 11 5 33 11 48 12 28 3 29 0 59 -92
31 -95 34 -104 58 -170 7 -19 15 -50 17 -68 3 -18 9 -35 14 -38 5 -3 9 -15 9
-28 0 -12 7 -31 15 -42 8 -10 15 -31 15 -46 0 -15 5 -30 10 -33 6 -3 10 -17
10 -31 0 -13 4 -32 9 -42 14 -28 33 -85 38 -115 8 -42 36 -31 45 18 13 75 27
135 38 154 5 11 10 35 10 55 0 19 5 38 10 41 6 3 10 18 10 32 0 23 12 72 41
169 5 17 9 38 9 48 0 10 7 41 16 70 29 94 34 112 34 139 0 15 4 35 9 45 5 9
12 24 14 33 5 14 52 17 394 23 213 4 412 8 442 9 54 2 78 19 44 30 -10 4 -25
11 -33 16 -37 22 -163 81 -175 81 -7 0 -15 3 -17 8 -3 7 -50 30 -328 165 -160
78 -157 75 -131 119 19 34 50 88 78 133 7 11 26 48 44 83 18 34 36 62 41 62 4
0 8 7 8 15 0 9 12 34 26 56 22 36 52 87 89 154 37 68 63 87 50 38 -7 -28 -16
-91 -33 -214 -5 -37 -12 -71 -16 -77 -7 -11 -19 -84 -35 -212 -5 -36 -12 -73
-16 -84 -17 -40 36 7 221 200 231 242 233 243 319 339 39 43 80 88 91 99 12
12 43 46 69 76 26 30 82 93 124 139 42 46 83 92 91 102 8 11 30 36 49 57 53
58 305 350 381 441 25 30 74 88 110 131 36 42 84 99 106 126 23 27 51 60 63
73 12 13 21 27 21 30 0 3 12 20 28 36 15 17 47 55 72 85 55 67 82 99 95 114 6
6 23 29 39 51 17 22 32 42 35 45 14 12 134 164 206 260 43 58 85 111 92 118 7
7 13 16 13 20 0 4 13 21 28 37 15 17 43 50 62 75 19 25 37 47 41 50 3 3 17 21
30 42 20 31 122 165 206 273 31 39 32 41 78 105 22 30 42 57 46 60 3 3 53 70
110 150 57 80 109 151 116 158 7 7 13 16 13 20 0 4 14 23 30 42 16 19 30 38
30 42 0 4 6 13 13 20 19 19 237 325 237 333 0 3 11 18 25 33 14 15 25 32 25
39 0 6 4 13 9 15 4 2 20 21 34 43 15 22 66 99 114 172 48 72 133 201 188 285
55 84 102 155 105 158 3 3 10 13 15 22 48 80 201 314 207 316 5 2 8 8 8 13 0
8 47 87 60 99 3 3 14 21 24 40 11 19 46 75 78 124 32 49 58 91 58 94 0 2 16
27 35 53 19 27 35 51 35 53 0 9 104 181 112 184 4 2 8 8 8 12 0 5 18 35 40 67
22 32 45 65 50 73 57 82 244 370 251 385 9 19 17 33 50 85 41 63 98 173 134
255 37 87 56 141 74 218 19 80 13 124 -28 209 -7 14 -35 38 -61 52 -41 22 -60
26 -131 26 -74 -1 -92 -5 -149 -33z"/>
<path d="M15838 17502 c-37 -20 -78 -46 -90 -57 -13 -11 -52 -45 -88 -75 -69
-59 -164 -156 -201 -205 -13 -16 -32 -39 -44 -50 -11 -11 -33 -38 -49 -60 -17
-22 -33 -42 -36 -45 -22 -16 -353 -470 -379 -517 -6 -12 -17 -27 -24 -35 -7
-7 -32 -44 -57 -83 -25 -38 -48 -71 -52 -73 -5 -2 -8 -8 -8 -14 0 -11 -51 -81
-62 -86 -5 -2 -8 -8 -8 -14 0 -5 -10 -24 -23 -41 -12 -18 -28 -41 -34 -52 -7
-11 -108 -171 -224 -355 -117 -184 -217 -344 -223 -355 -6 -11 -21 -34 -33
-52 -13 -17 -23 -34 -23 -38 0 -3 -11 -21 -25 -39 -14 -18 -25 -36 -25 -40 0
-4 -11 -22 -25 -40 -14 -18 -25 -37 -25 -43 0 -5 -15 -27 -33 -49 -18 -21 -57
-77 -87 -124 -52 -82 -177 -260 -189 -270 -4 -3 -24 -30 -46 -60 -22 -30 -42
-57 -45 -60 -4 -3 -33 -41 -66 -84 -85 -114 -84 -112 -249 -324 -82 -107 -159
-206 -170 -221 -23 -33 -68 -89 -110 -141 -16 -20 -42 -52 -57 -71 -85 -109
-164 -211 -200 -259 -23 -30 -44 -57 -48 -60 -3 -3 -44 -54 -90 -115 -47 -60
-93 -118 -102 -127 -10 -10 -18 -21 -18 -24 0 -3 -6 -11 -12 -18 -7 -7 -29
-32 -48 -56 -19 -24 -39 -48 -45 -54 -5 -6 -23 -29 -39 -51 -17 -22 -33 -42
-36 -45 -4 -3 -36 -44 -73 -92 -36 -48 -119 -154 -184 -235 -65 -82 -131 -166
-148 -188 -16 -22 -37 -49 -47 -60 -9 -11 -29 -37 -45 -57 -15 -20 -55 -70
-88 -110 -33 -40 -73 -91 -89 -113 -17 -22 -33 -42 -36 -45 -6 -5 -70 -89
-116 -152 -12 -16 -35 -43 -51 -61 -15 -18 -42 -50 -58 -72 -17 -22 -59 -76
-94 -120 -35 -44 -76 -96 -91 -115 -129 -163 -159 -200 -184 -235 -17 -22 -33
-42 -36 -45 -8 -6 -194 -240 -235 -295 -16 -22 -38 -49 -48 -60 -11 -11 -38
-45 -60 -75 -22 -30 -43 -57 -47 -60 -3 -3 -19 -23 -36 -45 -27 -37 -56 -74
-79 -99 -5 -6 -23 -29 -39 -51 -17 -22 -33 -42 -36 -45 -3 -3 -21 -25 -40 -50
-19 -25 -37 -47 -40 -50 -9 -8 -121 -150 -154 -195 -17 -22 -32 -42 -35 -45
-13 -11 -208 -258 -230 -290 -13 -19 -29 -39 -35 -45 -10 -9 -99 -120 -186
-232 -14 -17 -52 -65 -85 -105 -33 -40 -73 -91 -90 -113 -16 -22 -37 -48 -46
-58 -8 -9 -40 -49 -70 -87 l-54 -71 -70 5 c-86 5 -197 25 -210 37 -5 5 -33 9
-61 9 -29 0 -56 5 -59 10 -3 6 -23 10 -44 10 -21 0 -55 7 -74 15 -20 8 -53 15
-72 15 -20 0 -44 4 -53 9 -9 5 -44 11 -77 12 -59 4 -60 4 -57 -21 2 -14 9 -38
16 -55 8 -16 19 -43 26 -60 7 -16 16 -38 21 -47 5 -10 9 -23 9 -29 0 -6 7 -27
16 -47 9 -21 20 -46 24 -57 4 -11 15 -40 25 -65 10 -25 21 -54 25 -65 4 -11
14 -36 20 -55 15 -40 37 -95 53 -128 8 -18 6 -30 -11 -63 -39 -73 -57 -104
-63 -109 -3 -3 -9 -12 -12 -20 -4 -8 -21 -37 -37 -65 -17 -27 -34 -57 -37 -65
-4 -8 -9 -17 -12 -20 -3 -3 -14 -21 -25 -40 -10 -19 -26 -48 -36 -65 -9 -16
-32 -57 -50 -90 -18 -33 -36 -64 -40 -70 -20 -27 -50 -88 -45 -93 4 -4 125 50
175 79 8 5 31 16 50 25 44 21 374 181 417 202 31 16 33 15 57 -7 13 -13 31
-35 38 -50 7 -14 39 -65 71 -113 31 -48 57 -92 57 -97 0 -5 3 -11 8 -13 8 -3
112 -165 112 -174 0 -3 11 -20 25 -38 14 -18 25 -38 25 -44 0 -7 4 -12 9 -12
5 0 13 -9 16 -20 8 -26 21 -18 30 17 7 27 17 227 30 583 8 213 7 208 53 215
20 3 57 10 82 17 25 6 70 15 100 20 30 5 80 13 110 18 30 4 89 16 130 25 78
16 149 29 235 43 75 12 99 33 53 48 -13 4 -48 18 -78 31 -103 46 -115 51 -189
82 -40 17 -79 31 -87 31 -8 0 -14 5 -14 10 0 6 -5 10 -11 10 -6 0 -27 7 -47
16 -48 21 -73 31 -94 38 -29 9 -39 41 -20 62 20 23 72 101 72 109 0 4 11 21
25 39 14 18 25 36 25 40 0 4 11 22 25 40 14 18 25 38 25 44 0 7 4 12 8 12 5 0
14 10 20 23 6 12 22 38 34 58 13 20 39 62 58 93 19 31 39 55 45 53 13 -5 12
-97 -3 -217 -19 -161 -21 -230 -7 -230 19 0 322 309 470 480 26 30 78 87 114
126 36 38 93 101 126 139 33 38 69 78 80 90 11 11 40 45 65 75 24 30 66 78 91
105 26 28 60 66 76 86 15 19 53 64 83 99 116 133 197 227 240 280 25 30 53 64
62 75 36 41 87 103 153 185 38 47 72 87 75 90 3 3 23 28 45 55 21 28 44 55 49
60 6 6 24 28 40 50 17 22 33 42 36 45 8 7 241 295 265 329 11 15 37 47 57 72
20 24 58 72 85 106 82 105 205 262 268 342 33 42 80 103 105 136 24 33 49 66
56 75 76 95 103 130 124 160 13 19 43 58 65 85 22 28 49 63 60 79 11 15 34 46
51 69 17 23 57 78 89 122 33 44 62 82 65 85 4 3 19 23 33 45 21 32 110 153
155 210 4 6 39 53 77 105 38 52 75 101 82 108 7 8 18 23 24 34 6 11 17 27 25
36 28 34 654 909 716 1002 26 38 121 174 140 201 10 13 60 87 111 164 51 77
124 185 162 240 38 55 107 156 153 225 47 69 100 146 118 171 19 26 34 49 34
52 0 4 33 53 73 109 41 57 76 108 78 113 5 13 221 338 228 345 4 3 11 13 16
22 21 36 200 313 205 318 7 7 29 42 37 60 4 8 21 38 39 66 18 28 45 73 60 100
15 27 36 65 47 84 80 141 217 436 217 468 0 7 4 20 9 30 11 20 35 104 50 180
39 190 -47 343 -191 341 -41 0 -68 -9 -120 -37z"/>
<path d="M16870 16262 c-19 -9 -46 -26 -60 -37 -32 -26 -149 -143 -175 -175
-79 -98 -295 -427 -295 -449 0 -5 -3 -11 -7 -13 -5 -1 -16 -19 -26 -38 -21
-41 -79 -149 -141 -264 -24 -44 -110 -211 -190 -370 -80 -159 -150 -294 -154
-300 -5 -6 -27 -45 -49 -86 -22 -41 -49 -91 -60 -110 -11 -19 -35 -62 -53 -95
-18 -33 -76 -132 -128 -220 -52 -88 -106 -180 -120 -205 -13 -25 -59 -96 -101
-158 -42 -63 -80 -121 -86 -130 -5 -9 -39 -61 -75 -117 -36 -55 -67 -104 -70
-110 -20 -39 -291 -428 -316 -452 -8 -8 -14 -19 -14 -24 0 -5 -8 -17 -18 -27
-11 -11 -33 -40 -50 -65 -18 -25 -38 -51 -45 -59 -7 -7 -28 -33 -47 -58 -19
-25 -37 -47 -40 -50 -3 -3 -19 -23 -35 -45 -27 -37 -54 -70 -80 -99 -5 -6 -23
-29 -40 -51 -16 -22 -35 -47 -42 -55 -52 -66 -177 -225 -211 -270 -23 -30 -78
-102 -122 -160 -45 -58 -100 -130 -123 -160 -22 -30 -43 -57 -47 -60 -6 -5
-74 -94 -163 -214 -21 -28 -49 -65 -63 -83 -44 -56 -82 -106 -138 -183 -30
-41 -66 -88 -80 -105 -14 -16 -26 -33 -26 -37 0 -4 -6 -13 -13 -20 -7 -7 -41
-51 -75 -98 -33 -47 -65 -89 -70 -95 -4 -5 -39 -53 -77 -105 -60 -82 -79 -108
-123 -165 -4 -5 -43 -59 -87 -120 -43 -60 -87 -119 -97 -129 -10 -11 -18 -23
-18 -26 0 -4 -11 -20 -25 -36 -14 -16 -25 -32 -25 -36 0 -4 -6 -13 -13 -20 -7
-7 -57 -74 -110 -149 -54 -76 -104 -142 -112 -149 -8 -7 -15 -17 -15 -22 0 -5
-16 -29 -35 -52 -19 -24 -35 -47 -35 -53 0 -5 -11 -20 -25 -33 -14 -13 -25
-28 -25 -33 0 -6 -8 -19 -17 -29 -10 -11 -74 -98 -143 -195 -69 -97 -132 -181
-142 -186 -16 -11 -51 -4 -133 25 -16 6 -43 12 -60 15 -16 2 -39 8 -50 13 -11
5 -31 11 -45 14 -14 3 -50 12 -80 22 -30 9 -72 19 -93 21 -20 3 -40 9 -43 14
-3 5 -17 9 -32 9 -15 1 -38 7 -52 15 -38 22 -80 19 -80 -4 0 -11 3 -21 8 -23
4 -1 17 -23 30 -48 12 -25 33 -63 47 -85 29 -49 65 -113 79 -142 6 -13 14 -23
19 -23 4 0 7 -9 7 -19 0 -11 5 -23 10 -26 9 -6 44 -74 52 -102 2 -6 -29 -46
-68 -89 -77 -85 -99 -109 -154 -171 -79 -88 -199 -221 -267 -295 -93 -101 -94
-114 -8 -84 22 7 56 18 75 23 100 29 157 46 172 54 10 5 31 9 47 9 17 0 32 4
35 9 4 5 24 12 46 16 22 4 42 11 46 16 3 5 15 9 26 9 12 0 55 12 96 26 106 36
120 32 145 -41 11 -33 23 -69 27 -80 4 -11 15 -47 25 -80 9 -33 21 -68 26 -77
5 -10 9 -25 9 -34 0 -9 6 -30 14 -47 7 -18 19 -52 26 -77 6 -25 18 -60 26 -78
8 -18 14 -41 14 -52 0 -10 5 -22 10 -25 6 -3 10 -19 10 -35 0 -16 4 -31 9 -35
5 -3 13 -20 16 -37 l7 -32 14 25 c14 28 33 133 63 356 5 40 13 79 18 85 4 7
11 40 14 73 11 93 27 187 38 225 6 19 11 49 11 67 0 48 9 63 39 63 16 0 50 7
77 15 27 8 68 15 91 15 23 0 45 5 48 10 3 6 26 10 49 10 24 0 63 7 86 15 23 8
61 15 84 15 23 0 46 4 51 9 6 5 33 12 60 15 85 9 203 31 211 39 4 4 22 7 41 7
58 0 41 18 -47 50 -19 7 -47 15 -62 17 -16 3 -28 9 -28 14 0 5 -13 9 -28 9
-15 0 -32 4 -37 9 -6 5 -37 16 -70 26 -33 9 -69 20 -80 25 -64 24 -93 33 -118
37 -15 3 -30 9 -33 14 -3 5 -18 9 -35 9 -21 0 -29 5 -29 17 0 21 200 423 210
423 12 0 19 -43 31 -207 9 -102 16 -153 24 -153 13 0 174 164 325 330 52 58
102 112 110 120 8 8 33 35 54 60 22 25 76 86 121 135 45 50 126 142 180 205
54 63 120 140 146 171 27 31 59 69 71 85 22 28 71 84 96 110 6 7 12 16 12 21
1 4 21 31 46 58 26 28 65 75 88 105 22 30 43 57 46 60 3 3 21 25 40 50 19 25
47 59 62 75 15 17 28 33 28 37 0 4 6 13 13 20 7 7 36 44 66 82 29 37 59 75 66
85 100 125 266 343 372 490 35 47 69 94 77 103 8 9 19 25 25 36 6 11 17 26 23
34 21 21 98 127 98 133 0 3 11 18 24 32 13 14 30 37 38 52 7 14 19 33 27 41 8
8 39 51 68 95 29 44 78 116 108 160 31 44 100 145 153 225 53 80 100 147 104
148 4 2 8 8 8 13 0 10 5 17 68 111 18 25 32 51 32 56 0 6 3 12 8 14 10 4 112
166 112 177 0 5 6 14 14 20 8 7 24 33 36 59 12 26 44 82 71 124 27 42 49 82
49 87 0 6 3 11 8 11 4 0 16 17 27 38 11 20 30 54 43 75 13 21 31 53 41 70 21
38 78 136 105 180 10 18 31 56 46 85 16 29 33 58 38 65 6 7 28 46 50 87 21 41
54 102 72 135 18 33 49 89 68 125 72 133 502 995 502 1008 0 6 5 12 10 12 6 0
10 6 10 14 0 8 6 27 14 43 14 27 60 128 76 168 4 11 20 46 34 78 14 32 26 64
26 72 0 9 4 23 9 33 23 46 41 95 41 112 0 10 4 21 9 24 5 3 11 20 14 38 3 18
15 76 26 128 48 220 10 382 -109 463 -32 22 -114 22 -160 -1z"/>
<path d="M1348 15945 c-74 -136 -208 -418 -208 -436 0 -5 -4 -17 -9 -27 -15
-28 -57 -142 -84 -227 -57 -181 -77 -252 -77 -270 0 -10 -4 -32 -9 -49 -24
-81 -37 -149 -61 -316 -24 -171 -29 -219 -30 -272 0 -31 -4 -60 -10 -63 -13
-8 -13 -569 0 -627 5 -24 14 -101 21 -173 17 -202 34 -324 58 -434 6 -25 15
-73 21 -106 22 -111 58 -265 97 -400 21 -75 64 -217 73 -240 4 -11 15 -45 25
-75 10 -30 22 -59 26 -65 5 -5 9 -18 9 -30 0 -12 4 -25 8 -30 4 -6 14 -27 20
-47 11 -31 10 -46 -3 -95 -23 -83 -31 -111 -49 -173 -9 -30 -19 -72 -23 -93
-3 -21 -10 -40 -14 -43 -5 -3 -9 -19 -9 -35 0 -17 -5 -39 -11 -50 -6 -11 -15
-44 -20 -72 -5 -29 -14 -70 -19 -92 -48 -216 -56 -253 -69 -339 -6 -32 -14
-80 -20 -105 -6 -25 -15 -80 -21 -121 -6 -41 -17 -111 -25 -155 -8 -44 -15
-97 -15 -119 0 -21 -4 -66 -10 -100 -13 -82 -30 -251 -42 -421 -15 -199 -21
-1046 -8 -1059 5 -5 10 -44 10 -85 1 -71 6 -136 30 -381 18 -183 28 -269 35
-290 4 -12 11 -54 16 -93 11 -92 23 -171 44 -277 10 -47 21 -105 25 -130 4
-25 15 -79 25 -120 10 -41 21 -93 25 -115 5 -22 16 -69 25 -105 9 -36 19 -82
22 -103 3 -20 9 -40 14 -43 5 -3 9 -16 9 -29 0 -13 4 -34 9 -47 5 -13 17 -50
26 -83 23 -86 108 -365 125 -410 4 -11 12 -36 19 -55 7 -19 26 -75 43 -125 16
-49 34 -94 39 -99 5 -6 9 -18 9 -28 0 -18 3 -26 34 -85 9 -17 16 -38 16 -45 0
-8 11 -37 25 -64 14 -27 25 -54 25 -60 0 -5 11 -34 25 -62 14 -29 25 -54 25
-57 0 -2 13 -33 29 -67 15 -35 39 -85 51 -113 51 -112 113 -243 135 -285 84
-161 125 -239 142 -270 11 -19 35 -62 53 -95 18 -33 64 -111 101 -173 38 -63
69 -118 69 -123 0 -5 4 -9 9 -9 5 0 11 -8 15 -17 5 -16 19 -40 39 -67 11 -16
210 -314 222 -334 6 -9 20 -27 33 -41 12 -14 22 -31 22 -38 0 -6 4 -13 8 -15
4 -1 35 -41 69 -88 49 -68 175 -232 246 -320 84 -105 144 -170 154 -168 12 3
209 187 468 438 82 80 195 188 249 240 93 88 328 316 470 455 34 33 83 77 109
98 26 22 134 123 240 226 106 102 235 227 287 276 311 293 513 496 548 548 14
21 30 36 36 34 13 -4 9 -193 -5 -219 -5 -9 -9 -35 -9 -58 0 -22 -6 -69 -14
-103 -8 -34 -20 -89 -27 -122 -6 -33 -20 -91 -31 -130 -11 -38 -23 -86 -28
-105 -4 -19 -16 -60 -25 -90 -9 -30 -19 -67 -22 -83 -3 -15 -9 -30 -14 -33 -5
-3 -9 -13 -9 -22 0 -21 -86 -258 -111 -304 -5 -10 -9 -22 -9 -28 0 -5 -11 -33
-24 -62 -13 -29 -35 -78 -49 -108 -14 -30 -37 -82 -51 -115 l-26 -60 30 35
c61 70 180 259 252 400 62 121 99 205 188 435 42 108 107 358 131 500 5 33 12
69 16 80 7 24 21 120 33 235 13 126 29 612 22 713 -5 86 -6 89 -39 115 -19 15
-46 37 -61 50 -15 13 -67 58 -117 100 -49 42 -106 92 -126 112 -20 19 -60 55
-89 80 -30 25 -68 59 -86 75 -17 17 -74 68 -125 115 -334 303 -945 925 -1219
1238 -30 35 -70 80 -88 100 -36 39 -205 233 -233 267 -29 34 -139 169 -156
190 -9 11 -28 34 -42 50 -14 17 -39 48 -56 69 -16 21 -59 75 -95 120 -86 107
-258 334 -344 455 -37 53 -72 98 -77 99 -5 2 -9 9 -9 15 0 7 -10 23 -23 37
-36 39 -127 167 -127 178 0 6 -3 12 -7 14 -9 4 -113 155 -113 164 0 3 -11 20
-24 37 -13 18 -63 95 -110 172 -48 77 -91 147 -96 155 -9 15 -58 98 -90 155
-25 43 -96 167 -121 212 -61 106 -280 551 -324 658 -7 17 -23 53 -35 80 -12
28 -28 64 -35 80 -7 17 -20 46 -29 67 -9 20 -16 40 -16 45 0 5 -8 27 -19 49
-10 21 -26 64 -36 94 -10 30 -24 69 -31 85 -6 17 -22 62 -34 100 -13 39 -26
79 -31 90 -10 23 -29 84 -53 170 -10 33 -21 71 -26 85 -5 14 -14 50 -21 80 -6
30 -16 69 -21 85 -11 34 -17 58 -46 200 -11 55 -23 114 -27 130 -4 17 -10 55
-15 85 -4 30 -12 82 -18 115 -10 58 -20 139 -42 363 -26 265 -5 733 45 992 8
42 15 90 15 107 0 18 5 35 10 38 6 3 10 18 10 32 0 36 64 291 91 358 4 11 10
31 13 45 3 14 12 52 21 85 10 33 19 75 22 93 3 18 9 35 14 38 5 3 9 13 9 23 0
20 19 86 57 198 32 94 27 125 -9 58z"/>
<path d="M1735 15188 c-7 -20 -26 -135 -38 -233 -14 -117 -14 -708 1 -850 16
-161 45 -340 77 -490 9 -44 21 -98 25 -120 10 -48 47 -198 60 -240 5 -16 21
-70 36 -120 15 -49 37 -119 50 -155 13 -36 24 -70 24 -75 0 -9 38 -118 60
-170 4 -11 14 -36 21 -55 6 -19 23 -59 36 -88 12 -29 23 -55 23 -58 0 -6 9
-26 52 -124 14 -30 36 -80 49 -110 27 -62 235 -476 266 -530 11 -19 35 -62 53
-95 18 -33 41 -72 51 -87 11 -14 19 -29 19 -32 0 -3 23 -42 50 -86 28 -44 50
-82 50 -86 0 -3 6 -12 13 -19 6 -7 44 -63 82 -124 96 -152 451 -652 522 -736
5 -5 33 -41 63 -80 30 -38 63 -79 74 -90 10 -11 37 -45 60 -75 22 -30 46 -59
53 -65 6 -5 41 -45 77 -88 36 -44 66 -73 66 -66 0 11 -44 75 -60 89 -3 3 -19
23 -36 45 -16 22 -39 51 -51 65 -13 14 -23 28 -23 33 0 4 -11 20 -25 35 -14
15 -25 32 -25 39 0 6 -4 13 -9 15 -13 5 -218 298 -308 440 -42 68 -80 125 -83
128 -4 3 -33 50 -66 105 -32 55 -64 109 -71 120 -7 11 -15 27 -19 35 -4 8 -15
26 -24 40 -10 14 -37 61 -60 105 -24 44 -53 96 -65 115 -11 19 -76 148 -144
285 -120 242 -145 295 -191 400 -38 86 -43 100 -90 220 -8 19 -33 79 -50 120
-5 11 -20 54 -35 95 -15 41 -30 84 -35 95 -5 11 -16 43 -25 70 -10 28 -21 59
-26 70 -4 11 -16 45 -25 75 -9 30 -25 81 -36 113 -20 58 -52 164 -68 222 -67
247 -78 293 -99 395 -6 25 -17 74 -26 110 -16 68 -26 121 -44 234 -6 37 -14
73 -18 79 -6 9 -11 48 -32 219 -5 43 -12 86 -16 96 -14 47 -36 288 -56 630
-11 198 -20 250 -34 210z"/>
<path d="M17119 13853 c-6 -16 -21 -50 -34 -78 -12 -27 -42 -90 -65 -140 -75
-162 -172 -349 -182 -353 -5 -2 -8 -10 -8 -18 0 -8 -11 -31 -23 -52 -13 -20
-32 -56 -42 -79 -10 -24 -22 -43 -27 -43 -4 0 -8 -7 -8 -15 0 -9 -6 -26 -14
-38 -31 -48 -68 -113 -79 -139 -6 -16 -15 -28 -19 -28 -4 0 -8 -7 -8 -15 0 -9
-11 -33 -25 -55 -14 -22 -25 -42 -25 -46 0 -3 -8 -18 -19 -32 -10 -15 -32 -52
-48 -82 -16 -30 -39 -71 -50 -90 -11 -19 -35 -62 -53 -95 -18 -33 -41 -72 -51
-87 -11 -14 -19 -28 -19 -31 0 -10 -134 -233 -152 -253 -10 -11 -18 -24 -18
-28 0 -4 -11 -22 -25 -40 -14 -18 -25 -36 -25 -40 0 -6 -37 -70 -78 -132 -6
-10 -15 -26 -19 -34 -5 -11 -194 -317 -253 -410 -5 -8 -24 -41 -42 -72 -18
-32 -36 -58 -40 -58 -5 0 -8 -7 -8 -15 0 -8 -4 -15 -10 -15 -5 0 -10 -5 -10
-11 0 -6 -10 -25 -23 -42 -31 -44 -46 -68 -56 -93 -5 -11 -15 -27 -23 -35 -15
-16 -68 -96 -68 -103 0 -2 -34 -55 -75 -117 -41 -62 -75 -114 -75 -115 0 -7
-105 -159 -112 -162 -5 -2 -8 -8 -8 -13 0 -10 -384 -580 -425 -631 -8 -10 -26
-37 -41 -60 -15 -23 -35 -50 -45 -61 -10 -12 -21 -29 -25 -39 -3 -10 -10 -18
-15 -18 -5 0 -9 -5 -9 -11 0 -10 -39 -67 -72 -103 -10 -11 -18 -23 -18 -27 0
-3 -13 -22 -30 -40 -16 -19 -30 -39 -30 -45 0 -5 -10 -21 -22 -34 -12 -13 -62
-80 -110 -148 -49 -68 -95 -131 -103 -139 -9 -8 -20 -24 -27 -36 -9 -18 -118
-157 -138 -177 -3 -3 -18 -23 -35 -45 -16 -22 -32 -42 -35 -45 -3 -3 -64 -75
-135 -160 -169 -202 -244 -290 -321 -373 -35 -37 -67 -74 -71 -82 -5 -7 -69
-78 -143 -157 -74 -78 -166 -177 -205 -218 -90 -97 -488 -495 -585 -585 -41
-39 -138 -129 -215 -201 -77 -73 -166 -154 -197 -180 -100 -86 -202 -176 -248
-218 -42 -39 -114 -99 -264 -220 -34 -27 -63 -52 -66 -55 -3 -4 -30 -26 -60
-51 -30 -25 -57 -47 -60 -51 -3 -3 -30 -24 -60 -46 -30 -22 -64 -49 -75 -59
-11 -11 -38 -32 -60 -49 -22 -16 -51 -40 -65 -52 -14 -13 -30 -23 -37 -23 -6
0 -13 -4 -15 -8 -1 -5 -30 -28 -63 -52 -46 -34 -56 -45 -41 -48 10 -2 28 1 40
6 11 5 37 17 56 25 70 30 146 69 215 108 39 22 78 42 88 46 9 3 17 9 17 14 0
5 5 9 10 9 9 0 207 120 235 142 6 5 28 20 50 35 38 25 132 89 231 158 100 70
243 176 254 190 7 8 17 15 22 15 5 0 19 9 31 21 12 12 47 40 77 63 30 22 57
43 60 46 3 3 25 21 50 40 25 19 54 43 65 54 11 10 43 35 70 56 28 21 64 51 80
65 17 15 50 44 75 64 25 20 63 53 85 73 22 20 54 47 70 59 17 13 50 42 75 65
25 23 65 59 90 79 25 20 92 81 150 134 57 53 127 116 155 141 27 25 86 79 130
121 44 41 109 102 145 135 36 32 80 74 98 92 18 17 38 32 44 32 12 0 7 -65
-17 -190 -18 -92 -29 -175 -45 -345 -5 -60 -15 -146 -20 -190 -26 -204 -8
-872 30 -1128 6 -37 10 -81 10 -99 0 -17 6 -65 14 -107 8 -42 19 -110 26 -151
6 -41 15 -93 20 -115 5 -22 16 -76 25 -120 20 -97 20 -97 76 -315 28 -113 147
-486 169 -535 5 -11 28 -67 50 -125 50 -128 51 -132 84 -200 14 -30 26 -61 26
-68 0 -6 5 -12 10 -12 14 0 13 18 -11 112 -22 90 -29 117 -53 223 -18 76 -21
90 -60 270 -58 264 -65 302 -85 430 -6 39 -14 77 -17 85 -3 8 -10 44 -15 80
-10 69 -19 125 -44 285 -9 55 -18 120 -21 145 -2 25 -9 81 -14 125 -35 292
-42 407 -37 670 4 257 10 318 45 480 10 47 29 85 42 85 5 0 12 -17 15 -37 4
-21 11 -51 15 -68 5 -16 16 -59 25 -95 9 -36 21 -79 26 -96 5 -17 9 -38 9 -48
0 -19 27 -109 41 -138 5 -10 9 -29 9 -42 0 -14 4 -35 9 -48 10 -26 33 -101 51
-168 19 -67 41 -133 51 -152 5 -10 9 -29 9 -42 0 -13 7 -37 15 -52 8 -16 15
-37 15 -46 0 -9 5 -20 10 -23 6 -3 10 -17 10 -30 0 -13 5 -27 10 -30 6 -3 10
-15 10 -25 0 -11 7 -36 16 -57 23 -53 32 -75 37 -98 12 -45 68 -191 87 -227 6
-10 10 -27 10 -38 0 -11 3 -20 8 -20 7 0 27 -51 39 -97 3 -13 9 -23 14 -23 5
0 9 -7 9 -15 0 -8 4 -23 10 -33 5 -9 16 -35 26 -57 61 -149 244 -517 318 -640
50 -83 179 -290 236 -380 38 -59 113 -167 124 -178 7 -6 32 -39 56 -72 24 -33
46 -62 50 -65 3 -3 19 -23 35 -45 17 -22 32 -42 35 -45 3 -3 41 -45 85 -95
111 -125 204 -218 315 -316 52 -46 97 -86 100 -89 16 -17 121 -90 129 -90 12
0 38 26 101 100 25 30 52 61 60 69 13 13 94 109 175 208 11 14 11 14 85 108
30 39 57 72 60 75 3 3 25 32 49 65 25 33 48 62 53 63 4 2 8 9 8 15 0 7 11 24
25 39 14 15 25 32 25 38 0 5 4 10 8 10 5 0 17 16 28 35 10 19 21 35 25 35 3 0
14 16 25 35 10 19 22 35 26 35 5 0 8 7 8 15 0 8 5 15 10 15 6 0 10 5 10 10 0
6 23 41 50 79 28 38 50 72 50 76 0 5 11 23 25 41 14 18 25 37 25 43 0 6 5 11
10 11 6 0 10 6 10 14 0 7 6 19 14 25 8 7 22 26 31 44 9 18 22 41 28 52 7 11
35 58 63 105 28 47 66 112 84 145 18 33 42 76 53 95 19 34 96 180 150 285 29
58 115 239 144 305 11 25 30 68 43 95 40 89 86 198 109 258 12 30 42 108 51
132 4 11 15 38 23 60 24 60 78 217 84 240 3 11 8 29 13 40 12 31 35 101 64
200 15 50 31 98 36 107 6 10 10 25 10 35 0 9 12 55 26 102 14 47 29 102 34
121 5 19 14 55 21 80 12 43 19 79 37 173 5 23 11 47 15 53 3 6 11 37 17 70 6
32 15 79 20 104 43 228 50 266 69 410 7 47 14 93 17 103 3 9 10 54 15 100 32
266 40 357 45 487 3 80 10 154 15 165 13 26 5 867 -10 1080 -6 88 -18 221 -26
295 -9 74 -20 169 -24 210 -5 41 -13 107 -20 145 -6 39 -16 102 -22 140 -14
96 -28 170 -70 380 -13 66 -39 181 -50 225 -4 19 -18 73 -30 120 -11 47 -25
101 -29 120 -5 19 -16 60 -25 90 -9 30 -19 66 -22 80 -2 14 -8 34 -12 45 -5
11 -16 47 -26 80 -9 33 -21 69 -25 80 -5 11 -11 31 -13 45 -6 28 -45 147 -57
170 -4 9 -11 30 -14 48 -4 17 -12 34 -17 37 -5 4 -9 15 -9 26 0 10 -4 27 -9
37 -5 9 -17 37 -26 62 -9 25 -21 53 -26 62 -5 10 -9 24 -9 32 0 8 -6 27 -14
43 -8 15 -19 39 -24 53 -24 60 -44 106 -52 122 -6 10 -10 22 -10 28 0 6 -16
45 -35 86 -19 41 -35 77 -35 80 0 15 -212 446 -288 584 -175 321 -172 317
-193 263z"/>
<path d="M3720 10020 c0 -5 5 -10 11 -10 5 0 7 5 4 10 -3 6 -8 10 -11 10 -2 0
-4 -4 -4 -10z"/>
<path d="M3745 9990 c3 -5 8 -10 11 -10 2 0 4 5 4 10 0 6 -5 10 -11 10 -5 0
-7 -4 -4 -10z"/>
<path d="M5765 8471 c-3 -5 -1 -12 5 -16 5 -3 10 1 10 9 0 18 -6 21 -15 7z"/>
<path d="M9900 5568 c-57 -9 -121 -17 -275 -37 -49 -6 -97 -14 -105 -17 -8 -3
-62 -10 -120 -14 -58 -5 -158 -13 -222 -19 -64 -5 -123 -13 -130 -18 -7 -4
-47 -11 -88 -15 -125 -12 -205 -24 -227 -36 -12 -7 -40 -12 -62 -12 -22 0 -43
-4 -46 -10 -3 -5 -24 -10 -45 -10 -21 0 -41 -4 -44 -9 -3 -5 -20 -11 -38 -14
-33 -5 -135 -38 -193 -62 -16 -7 -43 -18 -60 -25 -16 -7 -37 -16 -45 -21 -8
-4 -46 -24 -85 -44 -38 -20 -88 -47 -110 -60 -22 -14 -47 -28 -55 -32 -38 -17
-290 -206 -348 -260 -7 -7 -34 -29 -60 -50 -26 -21 -72 -61 -102 -89 -30 -28
-89 -80 -130 -116 -41 -35 -93 -81 -115 -102 -22 -20 -60 -54 -83 -74 -44 -38
-53 -45 -202 -187 -47 -44 -110 -102 -140 -129 -243 -215 -1980 -1928 -1980
-1952 0 -7 42 -38 93 -70 50 -32 94 -61 97 -64 3 -3 21 -14 40 -24 19 -11 37
-22 40 -25 3 -3 21 -14 40 -25 65 -34 105 -58 120 -70 8 -6 33 -21 55 -33 22
-11 67 -35 100 -54 123 -67 164 -89 310 -162 164 -83 364 -177 373 -177 4 0
29 -11 57 -24 27 -13 68 -32 90 -41 80 -33 90 -37 107 -46 10 -5 22 -9 28 -9
6 0 33 -11 62 -25 28 -14 60 -25 69 -25 10 0 21 -4 24 -10 3 -5 13 -10 22 -10
8 0 29 -6 46 -14 90 -40 442 -156 612 -201 33 -9 69 -20 80 -25 11 -5 31 -11
45 -13 14 -3 52 -13 85 -22 33 -9 78 -20 100 -25 22 -5 58 -13 80 -19 144 -34
186 -44 230 -52 28 -5 84 -16 125 -25 81 -17 144 -27 260 -44 41 -6 88 -15
104 -20 16 -6 55 -10 87 -10 32 0 61 -5 64 -10 3 -6 32 -10 63 -10 31 0 84 -5
117 -11 61 -10 156 -18 485 -41 240 -16 765 -16 1000 0 102 7 241 17 310 22
69 4 149 13 179 19 29 6 79 11 110 11 32 0 61 4 67 9 5 5 41 12 79 15 39 3
111 12 160 21 50 9 115 20 145 25 49 7 89 15 265 51 107 21 132 27 180 39 28
7 60 16 73 21 13 5 32 9 44 9 11 0 41 7 67 15 25 7 66 19 91 26 25 6 59 15 75
20 17 5 57 16 90 25 33 9 69 19 80 24 11 4 47 15 80 25 146 44 375 122 440
150 17 7 52 20 79 29 27 10 72 26 100 38 28 11 62 25 76 30 14 6 39 16 55 23
17 7 41 17 55 22 14 6 50 22 80 35 30 14 71 32 90 41 108 47 171 77 325 153
94 47 195 98 225 115 30 17 80 45 110 62 30 17 78 43 105 59 28 15 58 31 68
34 9 4 17 10 17 15 0 5 5 9 11 9 22 0 56 35 48 50 -4 8 -20 42 -36 75 -15 33
-31 62 -35 63 -5 2 -8 11 -8 21 0 9 -4 21 -9 27 -5 5 -27 43 -49 84 -21 41
-49 91 -60 110 -12 19 -31 53 -42 75 -11 22 -32 58 -45 80 -14 22 -29 49 -34
60 -5 12 -41 72 -80 133 -39 62 -71 115 -71 118 0 3 -11 20 -25 38 -14 18 -25
38 -25 44 0 6 -3 12 -8 14 -4 2 -39 50 -77 108 -39 58 -73 109 -78 115 -4 5
-37 51 -73 100 -36 50 -98 134 -137 188 -73 100 -230 301 -253 325 -7 7 -30
34 -51 59 -111 138 -607 636 -691 695 -13 8 -39 30 -60 49 -20 19 -68 59 -107
89 -38 30 -72 57 -75 60 -19 23 -423 300 -437 300 -3 0 -14 6 -22 14 -9 8 -36
25 -61 39 -25 14 -70 39 -100 56 -30 17 -138 72 -240 122 -102 50 -193 95
-202 100 -10 5 -22 9 -28 9 -6 0 -33 11 -62 25 -28 14 -59 25 -69 25 -9 0 -30
7 -45 15 -16 8 -37 15 -46 15 -9 0 -20 5 -23 10 -3 6 -17 10 -30 10 -13 0 -27
5 -30 10 -3 6 -17 10 -31 10 -14 0 -35 5 -47 12 -12 6 -39 15 -59 20 -21 4
-55 12 -75 18 -104 26 -171 42 -198 46 -16 3 -52 9 -80 14 -84 16 -108 17
-165 8z"/>
<path d="M14276 4362 c-2 -4 -1 -14 5 -22 7 -12 9 -10 9 8 0 23 -5 28 -14 14z"/>
</g>
</svg>
